<svg width="2000" height="1118" viewBox="0 0 2000 1118" fill="none" xmlns="http://www.w3.org/2000/svg">
  <g clip-path="url(#clip0_942_34)">
    <path d="M0 773.159L176.322 424.135L0 142.361V773.159Z" fill="#C62626"/>
    <path d="M80.0381 1117.37L517.376 715.169L237.786 835.648L80.0381 1117.37Z" fill="#ED3A3A"/>
    <path d="M424.3 0L3.67383 813.715L277.417 674.975L514.168 388.648L424.3 0Z" fill="#ED3A3A"/>
    <path d="M277.417 674.975L3.67383 813.715L237.786 835.648L517.376 715.169L277.417 674.975Z" fill="#C62626"/>
    <path d="M929.569 279.757H1045.98L1249.67 838.028H1117.53L1074.28 712.997H900.492L858.016 838.028H725.878L929.569 279.757ZM1053.07 624.176L987.773 426.774L920.929 624.176H1053.07Z" fill="#ED3A3A"/>
    <path d="M1556.37 532.82C1528.12 532.944 1500.1 538.004 1473.59 547.77C1448.89 557.254 1431.06 571.411 1420.09 590.24V838.028H1294.47V425.221H1410.06V508.559C1422.65 482.653 1441.43 460.249 1464.74 443.327C1485.44 428.187 1510.25 419.706 1535.88 419.014H1548.5C1551.15 419.036 1553.78 419.313 1556.37 419.841V532.82Z" fill="#ED3A3A"/>
    <path d="M1720.69 845.891C1701.28 846.058 1682 842.729 1663.78 836.062C1647.04 829.99 1631.68 820.633 1618.61 808.542C1605.99 796.749 1595.83 782.579 1588.71 766.847C1581.27 750.441 1577.51 732.61 1577.69 714.6C1577.44 695.202 1581.9 676.034 1590.67 658.731C1599.48 641.825 1611.94 627.088 1627.15 615.588C1643.96 602.978 1662.86 593.402 1682.97 587.292C1706.15 580.204 1730.28 576.715 1754.52 576.946C1771.4 576.916 1788.24 578.352 1804.86 581.239C1819.54 583.656 1833.82 588.023 1847.34 594.224V575.342C1847.34 527.647 1819.75 503.799 1764.56 503.799C1742.55 503.719 1720.7 507.573 1700.04 515.18C1677.28 524.011 1655.64 535.506 1635.58 549.425L1598.69 470.744C1624.93 453.385 1653.52 439.867 1683.59 430.601C1713.96 421.562 1745.5 417.065 1777.19 417.255C1839.58 417.255 1887.87 431.929 1922.05 461.277C1956.23 490.625 1973.27 533.613 1973.17 590.24V696.391C1973.17 708.978 1975.13 717.755 1979.06 722.721C1981.74 725.534 1984.94 727.784 1988.5 729.339C1992.05 730.894 1995.88 731.722 1999.76 731.774V838.028C1989.93 840.481 1979.94 842.21 1969.86 843.201C1960.91 843.977 1952.83 844.39 1945.49 844.39C1921.9 844.39 1904.06 839.804 1891.99 830.63C1879.69 821.038 1871.52 807.1 1869.17 791.677L1866.85 772.796C1849.38 795.649 1826.93 814.21 1801.19 827.061C1776.18 839.507 1748.62 845.954 1720.69 845.891V845.891ZM1757.68 755.259C1771.24 755.26 1784.69 752.86 1797.41 748.172C1809.19 744.091 1820.01 737.668 1829.23 729.291C1841.27 719.876 1847.31 709.927 1847.34 699.443V660.128C1835.73 655.761 1823.75 652.471 1811.54 650.299C1799.76 648.024 1787.79 646.829 1775.79 646.73C1755.67 645.877 1735.78 651.301 1718.88 662.249C1711.97 666.6 1706.28 672.64 1702.35 679.799C1698.42 686.959 1696.38 695.001 1696.42 703.167C1696.25 710.305 1697.73 717.385 1700.73 723.862C1703.74 730.338 1708.2 736.036 1713.75 740.516C1726.13 750.575 1741.74 755.813 1757.68 755.259Z" fill="#ED3A3A"/>
  </g>
  <defs>
    <clipPath id="clip0_942_34">
      <rect width="2000" height="1117.37" fill="white"/>
    </clipPath>
  </defs>
</svg>
